<?xml version="1.0" ?><svg style="enable-background:new 0 0 512 512;" version="1.1" viewBox="0 0 512 512" xml:space="preserve" xmlns="http://www.w3.org/2000/svg" xmlns:xlink="http://www.w3.org/1999/xlink"><style type="text/css">
	.st0{fill:#16ADE1;}
	.st1{fill:#1B3954;}
</style><g id="Layer_1"/><g id="Layer_2"><g><g><g><path class="st0" d="M180.78,218.11c-1.97,0-3.88-0.83-5.23-2.34l-20.06-22.52l-47.43,12.71c-2.41,0.65-4.99-0.04-6.76-1.81      l-64.71-64.71c-1.77-1.77-2.46-4.35-1.81-6.76l12.95-48.31c0.65-2.42,2.53-4.3,4.95-4.95c2.41-0.65,4.99,0.04,6.76,1.81      l51.86,51.86l32.29-8.65l8.65-32.28L100.38,40.3c-1.77-1.77-2.46-4.35-1.81-6.76c0.65-2.42,2.53-4.3,4.95-4.95l48.31-12.94      c2.41-0.65,4.99,0.04,6.76,1.81l13.52,13.52c2.73,2.73,2.73,7.17,0,9.9c-2.73,2.73-7.17,2.73-9.9,0l-10.66-10.66l-32.69,8.76      L165,85.12c1.77,1.77,2.46,4.35,1.81,6.76l-10.74,40.08c-0.65,2.42-2.53,4.3-4.95,4.95l-40.09,10.74      c-2.41,0.65-4.99-0.04-6.76-1.81L58.11,99.7l-8.76,32.69l59,59l47.69-12.78c2.55-0.68,5.28,0.13,7.04,2.11l20.21,22.68      c1.96-0.31,3.96-0.47,5.96-0.47h18.08v-33.46c0-5.35,1.83-10.39,5.04-14.39l-12.51-11.15c-1.97-1.76-2.79-4.48-2.1-7.04      l12.78-47.68l-10.84-10.84c-2.73-2.73-2.73-7.17,0-9.9c2.73-2.73,7.17-2.73,9.9,0l13.7,13.7c1.77,1.77,2.46,4.35,1.81,6.76      l-12.71,47.42l15.31,13.64c1.72,1.54,2.58,3.83,2.29,6.12s-1.7,4.29-3.76,5.34c-3.03,1.54-4.91,4.61-4.91,8.01v40.46      c0,3.87-3.13,7-7,7h-25.08c-2.22,0-4.42,0.31-6.54,0.91C182.07,218.02,181.42,218.11,180.78,218.11z"/></g><g><path class="st1" d="M214.33,295.62c-3.69,0-6.77-2.88-6.98-6.59c-0.02-0.32-0.02-0.63-0.02-0.95v-18.34c0-3.87,3.13-7,7-7      s7.01,3.13,7.01,7v18.88c0,3.79-3.01,6.89-6.8,7C214.47,295.62,214.4,295.62,214.33,295.62z"/></g><g><path class="st1" d="M377.19,301.29c-0.08,0-0.17,0-0.25,0c-3.77-0.13-6.75-3.23-6.75-7v-82.05c0-0.34,0.01-0.68,0.04-1.02      c0.37-3.71,3.55-6.46,7.31-6.3c3.73,0.18,6.65,3.26,6.65,6.99v81.91c0,0.31-0.01,0.65-0.03,0.96      C383.91,298.46,380.84,301.29,377.19,301.29z"/></g><g><path class="st1" d="M377.19,301.29c-0.08,0-0.17,0-0.25,0c-3.77-0.13-6.75-3.23-6.75-7v-82.05c0-0.34,0.01-0.68,0.04-1.02      c0.37-3.71,3.55-6.46,7.31-6.3c3.73,0.18,6.65,3.26,6.65,6.99v81.91c0,0.31-0.01,0.65-0.03,0.96      C383.91,298.46,380.84,301.29,377.19,301.29z"/></g><g><path class="st1" d="M214.33,318.11c-3.87,0-7-3.13-7-7v-22.49c0-3.87,3.13-7,7-7s7,3.13,7,7v22.49      C221.33,314.98,218.2,318.11,214.33,318.11z"/></g><g><path class="st1" d="M264.7,397.29c-3.87,0-7-3.13-7-7v-1.77c0-10.18-2.69-20.23-7.77-29.04c-1.93-3.35-0.78-7.63,2.57-9.56      c3.35-1.93,7.63-0.78,9.56,2.57c6.3,10.94,9.63,23.4,9.63,36.03v1.77C271.7,394.15,268.57,397.29,264.7,397.29z"/></g><g><path class="st1" d="M424.09,496.6H197.38c-3.87,0-7-3.13-7-7v-47.33c0-3.87,3.13-7,7-7H388.8c1.41,0,2.78,0.42,3.95,1.22      c8.9,6.08,19.76,8.76,30.56,7.55c1.98-0.22,3.96,0.41,5.44,1.74c1.49,1.33,2.33,3.23,2.33,5.22v38.61      C431.09,493.46,427.96,496.6,424.09,496.6z M204.38,482.6h212.71v-24.29c-10.75-0.21-21.26-3.31-30.37-9.04H204.38V482.6z"/></g><g><path class="st1" d="M256.01,362.98c-2.43,0-4.78-1.26-6.08-3.52c-2.54-4.43-5.67-8.52-9.3-12.16l-7.8-7.8      c-2.73-2.73-2.73-7.17,0-9.9c2.73-2.73,7.17-2.73,9.9,0l7.81,7.81c4.5,4.51,8.38,9.58,11.54,15.08      c1.92,3.35,0.77,7.63-2.58,9.56C258.39,362.68,257.19,362.98,256.01,362.98z"/></g><g><path class="st1" d="M422.34,339.79c-3.87,0-7-3.13-7-7v-10.87c0-3.87,3.13-7,7-7s7,3.13,7,7v10.87      C429.34,336.66,426.21,339.79,422.34,339.79z"/></g><g><path class="st1" d="M388.8,449.27H223.23c-3.87,0-7-3.13-7-7s3.13-7,7-7h147.89L255.62,305.62h-30.74      c-9.36,0-17.07-7.31-17.54-16.65c-0.02-0.27-0.02-0.57-0.02-0.9v-18.34c0-3.87,3.13-7,7-7h61.94c1.72,0,3.31-0.71,4.49-2      c0.09-0.1,0.18-0.21,0.34-0.42c0.2-0.26,0.35-0.5,0.5-0.77c0.12-0.23,0.26-0.53,0.35-0.78c0.24-0.67,0.37-1.37,0.37-2.08v-33.72      c0-0.71-0.12-1.41-0.37-2.09c-0.09-0.24-0.23-0.54-0.39-0.85c-0.1-0.19-0.25-0.43-0.41-0.62c-0.2-0.27-0.3-0.38-0.35-0.44      c-1.22-1.33-2.81-2.04-4.53-2.04h-87.01c-2.22,0-4.42,0.31-6.54,0.91c-10.25,2.9-17.4,12.36-17.4,23.02v23.77      c-0.29,24.97-0.58,65-0.21,73.18c2.3,3.6,10.33,16.21,39.19,61.6c2.07,3.26,1.11,7.59-2.15,9.66c-3.26,2.07-7.59,1.11-9.66-2.15      c-32.26-50.74-39.56-62.2-40.01-62.88c-1.55-2.32-1.71-2.57-1.48-42.17c0.11-18.53,0.32-37.15,0.33-37.34v-23.69      c0-16.9,11.34-31.9,27.57-36.49c3.34-0.96,6.84-1.45,10.37-1.45h87.01c5.62,0,11.02,2.39,14.83,6.55      c0.39,0.42,0.81,0.92,1.24,1.51c0.53,0.69,1.06,1.52,1.54,2.4c0.51,0.97,0.91,1.84,1.22,2.7c0.81,2.22,1.22,4.53,1.22,6.88      v33.72c0,2.35-0.41,4.66-1.21,6.88c-0.31,0.86-0.71,1.73-1.17,2.62c-0.53,0.97-1.07,1.8-1.64,2.55      c-0.39,0.52-0.81,1.03-1.23,1.49c-3.76,4.12-9.17,6.51-14.79,6.51h-54.94l0,11.51c0.1,1.9,1.66,3.37,3.56,3.37h33.18      c0.11,0,0.22-0.01,0.33-0.01c2.1-0.11,4.16,0.75,5.57,2.33l120.48,135.22c2.48,2.78,5.27,5.24,8.31,7.32      c2.54,1.73,3.65,4.91,2.74,7.85C394.59,447.27,391.87,449.27,388.8,449.27z"/></g><g><path class="st0" d="M186.13,61.9c-2.13,0-4.23-0.97-5.61-2.8c-2.32-3.09-1.69-7.48,1.4-9.8c3.09-2.32,7.48-1.69,9.8,1.4      c2.32,3.09,1.7,7.48-1.4,9.8l0,0C189.07,61.45,187.59,61.9,186.13,61.9z"/></g><g><path class="st1" d="M377.19,301.29c-0.08,0-0.17,0-0.25,0c-3.77-0.13-6.75-3.23-6.75-7v-1.75c0-2.83,1.71-5.38,4.32-6.47      c2.62-1.08,5.63-0.48,7.63,1.52c1.31,1.31,2.06,3.1,2.06,4.96v1.27c0,0.31-0.01,0.65-0.03,0.96      C383.91,298.46,380.84,301.29,377.19,301.29z"/></g><g><path class="st0" d="M418.23,458.32c-11.88,0-23.53-3.55-33.37-10.27c-3.98-2.72-7.64-5.94-10.87-9.57L253.51,303.26      c-1.78-2-2.27-4.84-1.25-7.32c1.02-2.48,3.36-4.16,6.03-4.32c1.87-0.12,3.33-1.67,3.33-3.54c0-3.87,3.13-7,7-7s7,3.13,7,7v3.36      c0,4.28,3.48,7.77,7.76,7.77h24.76c4.28,0,7.76-3.48,7.76-7.77c0-3.87,3.13-7,7-7s7,3.13,7,7v2.39c0,5.37,2.1,10.43,5.9,14.23      c3.8,3.81,8.86,5.9,14.25,5.9c10.93,0,19.96-8.88,20.14-19.78c0.06-3.82,3.18-6.89,7-6.89c0.02,0,0.04,0,0.06,0      c3.84,0.03,6.94,3.16,6.94,7v7.34c0,5.38,2.09,10.43,5.9,14.23c3.81,3.81,8.86,5.91,14.24,5.91c2.84,0,5.57-0.57,8.11-1.69      c2.51-1.11,5.44-0.65,7.48,1.18l37.71,33.59c12.61,11.23,19.83,27.36,19.83,44.25c0,15.82-6.16,30.69-17.35,41.88      c-9.6,9.6-21.79,15.47-35.24,16.98C422.66,458.19,420.44,458.32,418.23,458.32z M281.01,313.08l103.43,116.09      c2.48,2.78,5.27,5.24,8.31,7.32c8.9,6.08,19.76,8.76,30.56,7.55c10.26-1.15,19.56-5.63,26.89-12.97      c8.54-8.54,13.25-19.9,13.25-31.98c0-12.9-5.52-25.22-15.15-33.79l-34.61-30.83c-3.03,0.86-6.17,1.3-9.38,1.3      c-9.13,0-17.7-3.55-24.14-10.01c-2.38-2.38-4.37-5.05-5.93-7.93c-6.21,6.25-14.79,10.14-24.21,10.14      c-9.13,0-17.71-3.55-24.15-10.01c-2.45-2.45-4.48-5.2-6.05-8.17c-3.38,2.17-7.4,3.42-11.7,3.42h-24.76      C282.58,313.21,281.79,313.16,281.01,313.08z"/></g><g><path class="st0" d="M419.59,426.81c-14.94,0-27.1-12.16-27.1-27.1s12.16-27.1,27.1-27.1s27.1,12.16,27.1,27.1      S434.53,426.81,419.59,426.81z M419.59,386.61c-7.22,0-13.1,5.88-13.1,13.1c0,7.22,5.88,13.1,13.1,13.1s13.1-5.88,13.1-13.1      C432.69,392.49,426.81,386.61,419.59,386.61z"/></g><g><path class="st1" d="M268.62,216.93h-54.3c-3.87,0-7-3.13-7-7v-40.46c0-8.69,4.81-16.53,12.54-20.48      c3.2-1.64,6.83-2.51,10.46-2.51h22.29c12.69,0,23.01,10.31,23.01,22.99v40.46C275.62,213.79,272.49,216.93,268.62,216.93z       M221.32,202.93h40.3v-33.46c0-4.96-4.04-8.99-9.01-8.99h-22.29c-1.45,0-2.82,0.33-4.09,0.98c-3.04,1.55-4.92,4.62-4.92,8.02      V202.93z"/></g><g><path class="st1" d="M308.14,313.21h-24.76c-12,0-21.76-9.77-21.76-21.77v-21.7c0-3.87,3.13-7,7-7h7.64c1.72,0,3.31-0.71,4.49-2      c0.09-0.1,0.18-0.21,0.34-0.42c0.2-0.26,0.35-0.5,0.5-0.77c0.12-0.23,0.26-0.53,0.35-0.78c0.24-0.67,0.37-1.37,0.37-2.08v-33.72      c0-0.71-0.12-1.41-0.37-2.09c-0.09-0.24-0.23-0.54-0.39-0.85c-0.1-0.19-0.25-0.43-0.4-0.62c-0.2-0.27-0.3-0.38-0.35-0.44      c-1.22-1.33-2.81-2.04-4.53-2.04h-7.64c-3.87,0-7-3.13-7-7v-26.43c0-12.67,10.31-22.98,22.98-22.98h22.31      c12.67,0,22.98,10.31,22.98,22.98v107.94C329.9,303.44,320.14,313.21,308.14,313.21z M275.62,276.74v14.7      c0,4.28,3.48,7.77,7.76,7.77h24.76c4.28,0,7.76-3.48,7.76-7.77V183.49c0-4.95-4.03-8.98-8.98-8.98H284.6      c-4.95,0-8.98,4.03-8.98,8.98v19.43h0.64c5.62,0,11.02,2.39,14.83,6.55c0.39,0.42,0.8,0.92,1.24,1.51      c0.53,0.69,1.06,1.52,1.54,2.4c0.51,0.97,0.91,1.84,1.22,2.7c0.81,2.22,1.22,4.53,1.22,6.88v33.72c0,2.35-0.41,4.66-1.21,6.88      c-0.31,0.86-0.71,1.73-1.17,2.62c-0.53,0.97-1.07,1.8-1.64,2.55c-0.39,0.52-0.81,1.03-1.23,1.49      c-3.76,4.12-9.17,6.51-14.79,6.51H275.62z"/></g><g><path class="st1" d="M350.04,327.96c-9.13,0-17.71-3.55-24.15-10.01c-6.45-6.45-10-15.02-10-24.13v-95.52      c0-12.3,10.01-22.31,22.31-22.31h23.68c12.3,0,22.31,10.01,22.31,22.31v13.61c0,0.13,0,0.26-0.01,0.39v81.99      c0,0.04,0,0.08,0,0.11C383.88,312.91,368.57,327.96,350.04,327.96z M338.21,190c-4.58,0-8.31,3.73-8.31,8.31v95.52      c0,5.37,2.1,10.43,5.9,14.23c3.8,3.81,8.86,5.9,14.25,5.9c10.91,0,19.93-8.85,20.14-19.73v-81.99c0-0.18,0-0.35,0.01-0.53v-13.4      c0-4.58-3.73-8.31-8.31-8.31H338.21z M384.16,212.59C384.16,212.6,384.16,212.6,384.16,212.59      C384.16,212.6,384.16,212.6,384.16,212.59z M384.16,212.58C384.16,212.59,384.16,212.59,384.16,212.58      C384.16,212.59,384.16,212.59,384.16,212.58z M384.16,212.58C384.16,212.58,384.16,212.58,384.16,212.58      C384.16,212.58,384.16,212.58,384.16,212.58z M377.19,211.91L377.19,211.91L377.19,211.91z"/></g><g><path class="st1" d="M404.32,335.77c-9.13,0-17.7-3.55-24.14-10.01c-6.44-6.43-10-15-10-24.13v-7.34c0-0.13,0-0.26,0.01-0.38      v-82c0-0.05,0-0.11,0-0.16c0.25-10.74,9.2-19.48,19.95-19.48h28.36c11,0,19.96,8.96,19.96,19.97v89.39      c0,9.75-4.18,19.05-11.48,25.53c-2.64,2.36-5.64,4.29-8.9,5.73C413.75,334.79,409.12,335.77,404.32,335.77z M384.18,294.46v7.17      c0,5.38,2.09,10.43,5.9,14.23c3.81,3.81,8.86,5.91,14.24,5.91c2.84,0,5.57-0.57,8.11-1.69c1.92-0.85,3.69-1.99,5.26-3.38      c4.31-3.83,6.78-9.32,6.78-15.06v-89.39c0-3.29-2.67-5.97-5.96-5.97h-28.36c-3.19,0-5.85,2.57-5.96,5.74v81.82      C384.19,294.03,384.19,294.25,384.18,294.46z"/></g><g><path class="st1" d="M258.06,305.62h-33.18c-9.36,0-17.07-7.31-17.54-16.65c-0.01-0.12-0.01-0.24-0.01-0.35v-18.88      c0-3.87,3.13-7,7-7h54.29c3.87,0,7,3.13,7,7v18.34c0,9.24-7.22,16.93-16.45,17.51C258.75,305.61,258.41,305.62,258.06,305.62z       M221.33,288.39c0.16,1.82,1.69,3.23,3.55,3.23h33.18c0.11,0,0.22-0.01,0.33-0.01c1.77-0.11,3.23-1.67,3.23-3.53v-11.34h-40.29      V288.39z"/></g></g></g></g></svg>