<?xml version="1.0" ?><svg style="enable-background:new 0 0 512 512;" version="1.1" viewBox="0 0 512 512" xml:space="preserve" xmlns="http://www.w3.org/2000/svg" xmlns:xlink="http://www.w3.org/1999/xlink"><style type="text/css">
	.st0{fill:#16ADE1;}
	.st1{fill:#1B3954;}
</style><g id="Layer_1"/><g id="Layer_2"><g><g><g><path class="st1" d="M121.1,405.34c-3.87,0-7-3.13-7-7c0-23.88-19.42-43.3-43.3-43.3s-43.3,19.42-43.3,43.3c0,3.87-3.13,7-7,7      s-7-3.13-7-7V113.66c0-31.6,25.7-57.3,57.3-57.3s57.3,25.7,57.3,57.3v284.68C128.1,402.21,124.97,405.34,121.1,405.34z       M70.8,341.04c17.27,0,32.79,7.68,43.3,19.81V113.66c0-23.88-19.42-43.3-43.3-43.3s-43.3,19.42-43.3,43.3v247.19      C38.01,348.72,53.53,341.04,70.8,341.04z"/></g><g><path class="st1" d="M491.5,455.64c-3.87,0-7-3.13-7-7V120.66H128.1v277.68c0,3.87-3.13,7-7,7s-7-3.13-7-7      c0-23.88-19.42-43.3-43.3-43.3s-43.3,19.42-43.3,43.3c0,23.88,19.42,43.3,43.3,43.3h380.67c3.87,0,7,3.13,7,7s-3.13,7-7,7H70.8      c-31.59,0-57.3-25.7-57.3-57.3c0-31.6,25.71-57.3,57.3-57.3c17.27,0,32.79,7.68,43.3,19.81V113.66c0-3.87,3.13-7,7-7h370.4      c3.87,0,7,3.13,7,7v334.98C498.5,452.51,495.37,455.64,491.5,455.64z"/></g><g><g><path class="st1" d="M227.3,235.68h-68.43c-3.87,0-7-3.13-7-7v-68.43c0-3.87,3.13-7,7-7h68.43c3.87,0,7,3.13,7,7v68.43       C234.3,232.55,231.16,235.68,227.3,235.68z M165.87,221.68h54.43v-54.43h-54.43V221.68z"/></g><g><path class="st0" d="M286.53,405.73H234.7c-3.87,0-7-3.13-7-7s3.13-7,7-7h44.83V278.07H165.87v113.66h9.34c3.87,0,7,3.13,7,7       s-3.13,7-7,7h-16.34c-3.87,0-7-3.13-7-7V271.07c0-3.87,3.13-7,7-7h127.66c3.87,0,7,3.13,7,7v127.66       C293.53,402.59,290.4,405.73,286.53,405.73z"/></g><g><path class="st0" d="M201.64,405.73c-1.85,0-3.65-0.75-4.95-2.05c-0.32-0.33-0.62-0.68-0.87-1.07       c-0.25-0.38-0.47-0.78-0.65-1.21c-0.17-0.42-0.3-0.86-0.39-1.31c-0.1-0.45-0.14-0.91-0.14-1.36c0-0.46,0.04-0.92,0.14-1.37       c0.09-0.45,0.22-0.89,0.39-1.31c0.18-0.42,0.4-0.83,0.65-1.21s0.55-0.74,0.87-1.06c1.3-1.31,3.1-2.05,4.95-2.05       c1.84,0,3.64,0.74,4.95,2.05c0.32,0.32,0.61,0.68,0.87,1.06c0.25,0.38,0.47,0.79,0.64,1.21c0.18,0.42,0.31,0.86,0.4,1.31       s0.14,0.91,0.14,1.37c0,0.45-0.05,0.91-0.14,1.36s-0.22,0.89-0.4,1.31c-0.17,0.43-0.39,0.83-0.64,1.21       c-0.26,0.39-0.55,0.74-0.87,1.07C205.28,404.98,203.48,405.73,201.64,405.73z"/></g><g><path class="st0" d="M436.66,235.68H256c-3.87,0-7-3.13-7-7v-68.43c0-3.87,3.13-7,7-7h88.4c3.87,0,7,3.13,7,7s-3.13,7-7,7H263       v54.43h166.66v-54.43h-32.32c-3.87,0-7-3.13-7-7s3.13-7,7-7h39.32c3.87,0,7,3.13,7,7v68.43       C443.66,232.55,440.53,235.68,436.66,235.68z"/></g><g><path class="st0" d="M369.26,167.26c-0.46,0-0.92-0.05-1.37-0.14c-0.45-0.09-0.89-0.22-1.31-0.4       c-0.42-0.17-0.83-0.39-1.21-0.64c-0.38-0.26-0.74-0.55-1.06-0.87c-0.33-0.33-0.62-0.68-0.87-1.07       c-0.26-0.38-0.47-0.78-0.65-1.2c-0.17-0.43-0.31-0.87-0.4-1.31c-0.09-0.46-0.14-0.92-0.14-1.37c0-0.46,0.05-0.92,0.14-1.37       c0.09-0.45,0.23-0.89,0.4-1.31c0.18-0.42,0.39-0.83,0.65-1.21c0.25-0.38,0.54-0.74,0.87-1.06c0.32-0.32,0.68-0.62,1.06-0.87       s0.79-0.47,1.21-0.65c0.42-0.17,0.86-0.3,1.31-0.39c0.9-0.19,1.83-0.19,2.73,0c0.45,0.09,0.89,0.22,1.31,0.39       c0.42,0.18,0.83,0.4,1.21,0.65s0.74,0.55,1.06,0.87c0.33,0.32,0.62,0.68,0.88,1.06c0.25,0.38,0.46,0.79,0.64,1.21       c0.17,0.42,0.31,0.86,0.4,1.31c0.09,0.45,0.13,0.91,0.13,1.37c0,0.45-0.04,0.91-0.13,1.37c-0.09,0.44-0.23,0.88-0.4,1.31       c-0.18,0.42-0.39,0.82-0.64,1.2c-0.26,0.39-0.55,0.74-0.88,1.07c-0.32,0.32-0.68,0.61-1.06,0.87       c-0.38,0.25-0.79,0.47-1.21,0.64c-0.42,0.18-0.86,0.31-1.31,0.4C370.17,167.21,369.71,167.26,369.26,167.26z"/></g><g><path class="st1" d="M368.23,409.04h-38.3c-3.87,0-7-3.13-7-7V271.07c0-3.87,3.13-7,7-7h38.3c3.87,0,7,3.13,7,7v130.98       C375.23,405.91,372.1,409.04,368.23,409.04z M336.94,395.04h24.3V278.07h-24.3V395.04z"/></g><g><path class="st1" d="M436.66,409.04h-38.3c-3.87,0-7-3.13-7-7V271.07c0-3.87,3.13-7,7-7h38.3c3.87,0,7,3.13,7,7v130.98       C443.66,405.91,440.53,409.04,436.66,409.04z M405.36,395.04h24.3V278.07h-24.3V395.04z"/></g></g><g><path class="st1" d="M67.81,314.87c-3.87,0-7-3.13-7-7V121.32c0-3.87,3.13-7,7-7s7,3.13,7,7v186.55      C74.81,311.74,71.67,314.87,67.81,314.87z"/></g><g><path class="st1" d="M67.81,106.24c-1.85,0-3.65-0.75-4.95-2.05c-1.3-1.31-2.05-3.11-2.05-4.95c0-1.85,0.75-3.65,2.05-4.95      c1.62-1.63,4.04-2.37,6.32-1.92c0.44,0.09,0.88,0.23,1.31,0.4c0.42,0.18,0.82,0.39,1.2,0.65c0.39,0.25,0.75,0.54,1.07,0.87      c1.3,1.3,2.05,3.1,2.05,4.95c0,1.84-0.75,3.64-2.05,4.95c-0.32,0.32-0.68,0.61-1.07,0.87c-0.38,0.25-0.78,0.47-1.2,0.64      c-0.43,0.18-0.87,0.31-1.31,0.4C68.73,106.19,68.27,106.24,67.81,106.24z"/></g></g></g></g></svg>